<svg xmlns="http://www.w3.org/2000/svg" xmlns:xlink="http://www.w3.org/1999/xlink" width="512" zoomAndPan="magnify" viewBox="0 0 384 383.999986" height="512" preserveAspectRatio="xMidYMid meet" version="1.0"><defs><clipPath id="0686dcc85d"><path d="M 72 0 L 312 0 C 351.765625 0 384 32.234375 384 72 L 384 312 C 384 351.765625 351.765625 384 312 384 L 72 384 C 32.234375 384 0 351.765625 0 312 L 0 72 C 0 32.234375 32.234375 0 72 0 Z M 72 0 " clip-rule="nonzero"/></clipPath><clipPath id="763b1a6297"><path d="M 0 0 L 384 0 L 384 384 L 0 384 Z M 0 0 " clip-rule="nonzero"/></clipPath><clipPath id="70409746a2"><path d="M 72 0 L 312 0 C 351.765625 0 384 32.234375 384 72 L 384 312 C 384 351.765625 351.765625 384 312 384 L 72 384 C 32.234375 384 0 351.765625 0 312 L 0 72 C 0 32.234375 32.234375 0 72 0 Z M 72 0 " clip-rule="nonzero"/></clipPath><clipPath id="9f7ff88fbf"><rect x="0" width="384" y="0" height="384"/></clipPath><clipPath id="30c453341a"><path d="M 107 84 L 277 84 L 277 300 L 107 300 Z M 107 84 " clip-rule="nonzero"/></clipPath><clipPath id="efe0c898ef"><path d="M 68.691406 86.691406 L 68.691406 297.308594 C 68.691406 307.25 76.75 315.308594 86.691406 315.308594 L 297.308594 315.308594 C 307.25 315.308594 315.308594 307.25 315.308594 297.308594 L 315.308594 86.691406 C 315.308594 76.75 307.25 68.691406 297.308594 68.691406 L 86.691406 68.691406 C 76.75 68.691406 68.691406 76.75 68.691406 86.691406 Z M 68.691406 86.691406 " clip-rule="nonzero"/></clipPath></defs><g clip-path="url(#0686dcc85d)"><g><g clip-path="url(#9f7ff88fbf)"><g clip-path="url(#763b1a6297)"><g clip-path="url(#70409746a2)"><rect x="-84.48" width="552.96" fill="#0a0a0a" height="552.959979" y="-84.479997" fill-opacity="1"/></g></g></g></g></g><g clip-path="url(#30c453341a)"><g clip-path="url(#efe0c898ef)"><path fill="#eebb55" d="M 261.355469 138.050781 L 222.820312 138.050781 L 222.820312 99.515625 C 222.820312 98.503906 222.722656 97.5 222.523438 96.507812 C 222.328125 95.515625 222.035156 94.554688 221.648438 93.617188 C 221.261719 92.683594 220.785156 91.792969 220.222656 90.953125 C 219.660156 90.113281 219.023438 89.332031 218.304688 88.617188 C 217.589844 87.902344 216.8125 87.261719 215.972656 86.699219 C 215.128906 86.136719 214.242188 85.664062 213.304688 85.277344 C 212.371094 84.890625 211.40625 84.597656 210.414062 84.398438 C 209.421875 84.203125 208.417969 84.101562 207.40625 84.101562 L 176.582031 84.101562 C 175.570312 84.101562 174.566406 84.203125 173.574219 84.398438 C 172.582031 84.597656 171.617188 84.890625 170.683594 85.277344 C 169.75 85.664062 168.859375 86.136719 168.019531 86.699219 C 167.175781 87.261719 166.398438 87.902344 165.683594 88.617188 C 164.96875 89.332031 164.328125 90.113281 163.765625 90.953125 C 163.203125 91.792969 162.730469 92.683594 162.34375 93.617188 C 161.953125 94.554688 161.664062 95.515625 161.464844 96.507812 C 161.265625 97.5 161.167969 98.503906 161.167969 99.515625 L 161.167969 138.050781 L 122.636719 138.050781 C 121.625 138.050781 120.621094 138.148438 119.628906 138.34375 C 118.636719 138.542969 117.671875 138.835938 116.738281 139.222656 C 115.800781 139.609375 114.914062 140.085938 114.074219 140.648438 C 113.230469 141.207031 112.453125 141.847656 111.738281 142.5625 C 111.023438 143.277344 110.382812 144.058594 109.820312 144.898438 C 109.257812 145.742188 108.785156 146.628906 108.394531 147.5625 C 108.007812 148.5 107.714844 149.460938 107.519531 150.453125 C 107.320312 151.449219 107.222656 152.449219 107.222656 153.460938 L 107.222656 184.289062 C 107.222656 185.300781 107.320312 186.300781 107.519531 187.296875 C 107.714844 188.289062 108.007812 189.25 108.394531 190.1875 C 108.785156 191.121094 109.257812 192.007812 109.820312 192.851562 C 110.382812 193.691406 111.023438 194.472656 111.738281 195.1875 C 112.453125 195.902344 113.230469 196.542969 114.074219 197.105469 C 114.914062 197.664062 115.800781 198.140625 116.738281 198.527344 C 117.671875 198.914062 118.636719 199.207031 119.628906 199.40625 C 120.621094 199.601562 121.625 199.703125 122.636719 199.703125 L 161.167969 199.703125 L 161.167969 284.472656 C 161.167969 285.484375 161.265625 286.488281 161.464844 287.480469 C 161.664062 288.472656 161.953125 289.4375 162.339844 290.371094 C 162.730469 291.304688 163.203125 292.195312 163.765625 293.035156 C 164.328125 293.878906 164.96875 294.65625 165.683594 295.371094 C 166.398438 296.085938 167.175781 296.726562 168.019531 297.289062 C 168.859375 297.851562 169.75 298.324219 170.683594 298.714844 C 171.617188 299.101562 172.582031 299.394531 173.574219 299.589844 C 174.566406 299.789062 175.570312 299.886719 176.582031 299.886719 L 207.40625 299.886719 C 208.417969 299.886719 209.421875 299.789062 210.414062 299.589844 C 211.40625 299.394531 212.371094 299.101562 213.304688 298.714844 C 214.242188 298.324219 215.128906 297.851562 215.972656 297.289062 C 216.8125 296.726562 217.589844 296.085938 218.304688 295.371094 C 219.023438 294.65625 219.660156 293.878906 220.222656 293.035156 C 220.785156 292.195312 221.261719 291.304688 221.648438 290.371094 C 222.035156 289.4375 222.328125 288.472656 222.523438 287.480469 C 222.722656 286.488281 222.820312 285.484375 222.820312 284.472656 L 222.820312 199.703125 L 261.355469 199.703125 C 262.367188 199.703125 263.367188 199.601562 264.359375 199.40625 C 265.351562 199.207031 266.316406 198.914062 267.25 198.527344 C 268.1875 198.140625 269.074219 197.664062 269.917969 197.105469 C 270.757812 196.542969 271.535156 195.902344 272.253906 195.1875 C 272.96875 194.472656 273.605469 193.691406 274.167969 192.851562 C 274.730469 192.007812 275.207031 191.121094 275.59375 190.1875 C 275.980469 189.25 276.273438 188.289062 276.46875 187.296875 C 276.667969 186.300781 276.765625 185.300781 276.765625 184.289062 L 276.765625 153.460938 C 276.765625 152.449219 276.667969 151.449219 276.46875 150.453125 C 276.273438 149.460938 275.980469 148.5 275.59375 147.5625 C 275.207031 146.628906 274.730469 145.742188 274.167969 144.898438 C 273.605469 144.058594 272.96875 143.277344 272.253906 142.5625 C 271.535156 141.847656 270.757812 141.207031 269.917969 140.648438 C 269.074219 140.085938 268.1875 139.609375 267.25 139.222656 C 266.316406 138.835938 265.351562 138.542969 264.359375 138.34375 C 263.367188 138.148438 262.367188 138.050781 261.355469 138.050781 Z M 261.355469 184.289062 L 215.113281 184.289062 C 214.609375 184.289062 214.105469 184.335938 213.609375 184.4375 C 213.113281 184.535156 212.632812 184.679688 212.164062 184.875 C 211.699219 185.070312 211.253906 185.304688 210.832031 185.585938 C 210.410156 185.867188 210.023438 186.1875 209.664062 186.546875 C 209.308594 186.902344 208.988281 187.292969 208.707031 187.714844 C 208.425781 188.132812 208.1875 188.578125 207.996094 189.046875 C 207.800781 189.511719 207.65625 189.996094 207.554688 190.492188 C 207.457031 190.988281 207.40625 191.488281 207.40625 191.996094 L 207.40625 284.472656 L 176.582031 284.472656 L 176.582031 191.996094 C 176.582031 191.488281 176.53125 190.988281 176.433594 190.492188 C 176.335938 189.996094 176.1875 189.511719 175.996094 189.046875 C 175.800781 188.578125 175.5625 188.132812 175.28125 187.714844 C 175 187.292969 174.683594 186.902344 174.324219 186.546875 C 173.964844 186.1875 173.578125 185.867188 173.15625 185.585938 C 172.734375 185.304688 172.292969 185.070312 171.824219 184.875 C 171.355469 184.679688 170.875 184.535156 170.378906 184.4375 C 169.882812 184.335938 169.382812 184.289062 168.875 184.289062 L 122.636719 184.289062 L 122.636719 153.460938 L 168.875 153.460938 C 169.382812 153.460938 169.882812 153.414062 170.378906 153.3125 C 170.875 153.214844 171.355469 153.070312 171.824219 152.875 C 172.292969 152.683594 172.734375 152.445312 173.15625 152.164062 C 173.578125 151.882812 173.964844 151.5625 174.324219 151.203125 C 174.683594 150.847656 175 150.457031 175.28125 150.035156 C 175.5625 149.617188 175.800781 149.171875 175.996094 148.703125 C 176.1875 148.238281 176.335938 147.753906 176.433594 147.257812 C 176.53125 146.761719 176.582031 146.261719 176.582031 145.753906 L 176.582031 99.515625 L 207.40625 99.515625 L 207.40625 145.753906 C 207.40625 146.261719 207.457031 146.761719 207.554688 147.257812 C 207.65625 147.753906 207.800781 148.238281 207.996094 148.703125 C 208.1875 149.171875 208.425781 149.617188 208.707031 150.035156 C 208.988281 150.457031 209.308594 150.847656 209.664062 151.203125 C 210.023438 151.5625 210.410156 151.882812 210.832031 152.164062 C 211.253906 152.445312 211.699219 152.683594 212.164062 152.875 C 212.632812 153.070312 213.113281 153.214844 213.609375 153.3125 C 214.105469 153.414062 214.609375 153.460938 215.113281 153.460938 L 261.355469 153.460938 Z M 261.355469 184.289062 " fill-opacity="1" fill-rule="nonzero"/></g></g></svg>